<?xml version="1.0" encoding="utf-8" ?>
<svg baseProfile="tiny" height="1024" version="1.2" width="1024" xmlns="http://www.w3.org/2000/svg" xmlns:ev="http://www.w3.org/2001/xml-events" xmlns:xlink="http://www.w3.org/1999/xlink"><defs /><path d="M 376,756 L 376,758 L 375,759 L 375,760 L 374,761 L 374,762 L 373,763 L 373,764 L 372,765 L 372,766 L 370,768 L 370,769 L 363,776 L 362,776 L 361,777 L 360,777 L 359,778 L 358,778 L 357,779 L 355,779 L 354,780 L 350,780 L 349,781 L 341,781 L 340,780 L 338,780 L 339,781 L 340,781 L 343,784 L 344,784 L 347,787 L 348,787 L 350,789 L 351,789 L 353,791 L 354,791 L 356,793 L 357,793 L 359,795 L 360,795 L 362,797 L 363,797 L 364,798 L 365,798 L 366,799 L 367,799 L 369,801 L 370,801 L 371,802 L 372,802 L 373,803 L 374,803 L 375,804 L 376,804 L 378,806 L 379,806 L 380,807 L 381,807 L 382,808 L 383,808 L 384,809 L 385,809 L 386,810 L 388,810 L 389,811 L 390,811 L 391,812 L 392,812 L 393,813 L 394,813 L 395,814 L 396,814 L 397,815 L 398,815 L 399,816 L 401,816 L 402,817 L 403,817 L 404,818 L 405,818 L 406,819 L 408,819 L 409,820 L 410,820 L 411,821 L 413,821 L 414,822 L 416,822 L 417,823 L 418,823 L 419,824 L 422,824 L 423,825 L 424,825 L 425,826 L 427,826 L 428,827 L 431,827 L 432,828 L 434,828 L 435,829 L 437,829 L 438,830 L 442,830 L 443,831 L 445,831 L 446,832 L 449,832 L 450,833 L 453,833 L 454,834 L 458,834 L 459,835 L 464,835 L 465,836 L 470,836 L 471,837 L 479,837 L 480,838 L 488,838 L 489,839 L 508,839 L 509,840 L 525,840 L 526,839 L 541,839 L 542,838 L 549,838 L 550,837 L 556,837 L 557,836 L 563,836 L 564,835 L 568,835 L 569,834 L 573,834 L 574,833 L 578,833 L 579,832 L 582,832 L 583,831 L 586,831 L 587,830 L 590,830 L 591,829 L 594,829 L 595,828 L 597,828 L 598,827 L 601,827 L 602,826 L 604,826 L 605,825 L 607,825 L 608,824 L 610,824 L 611,823 L 613,823 L 614,822 L 616,822 L 617,821 L 618,821 L 619,820 L 621,820 L 622,819 L 624,819 L 625,818 L 626,818 L 627,817 L 628,817 L 629,816 L 630,816 L 631,815 L 633,815 L 634,814 L 635,814 L 636,813 L 637,813 L 638,812 L 639,812 L 640,811 L 641,811 L 642,810 L 643,810 L 644,809 L 645,809 L 646,808 L 647,808 L 648,807 L 649,807 L 650,806 L 651,806 L 652,805 L 653,805 L 654,804 L 655,804 L 657,802 L 658,802 L 659,801 L 660,801 L 661,800 L 662,800 L 664,798 L 665,798 L 666,797 L 667,797 L 669,795 L 670,795 L 672,793 L 673,793 L 675,791 L 676,791 L 678,789 L 679,789 L 681,787 L 682,787 L 684,785 L 685,785 L 688,782 L 689,782 L 690,781 L 690,780 L 689,781 L 680,781 L 679,780 L 674,780 L 673,779 L 671,779 L 670,778 L 668,778 L 666,776 L 665,776 L 663,774 L 662,774 L 660,772 L 660,771 L 656,767 L 656,766 L 655,765 L 655,764 L 654,763 L 654,762 L 653,761 L 653,760 L 651,758 L 651,757 L 650,757 L 647,760 L 646,760 L 643,763 L 642,763 L 640,765 L 639,765 L 636,768 L 635,768 L 633,770 L 632,770 L 631,771 L 630,771 L 628,773 L 627,773 L 626,774 L 625,774 L 624,775 L 623,775 L 622,776 L 621,776 L 619,778 L 618,778 L 617,779 L 616,779 L 615,780 L 614,780 L 613,781 L 611,781 L 610,782 L 609,782 L 608,783 L 606,783 L 605,784 L 604,784 L 603,785 L 601,785 L 600,786 L 599,786 L 598,787 L 596,787 L 595,788 L 592,788 L 591,789 L 589,789 L 588,790 L 585,790 L 584,791 L 581,791 L 580,792 L 577,792 L 576,793 L 572,793 L 571,794 L 565,794 L 564,795 L 557,795 L 556,796 L 536,796 L 535,795 L 536,794 L 539,794 L 540,793 L 542,793 L 543,792 L 544,792 L 545,791 L 547,791 L 548,790 L 549,790 L 550,789 L 551,789 L 552,788 L 553,788 L 555,786 L 556,786 L 559,783 L 560,783 L 567,776 L 567,775 L 570,772 L 570,771 L 571,770 L 571,769 L 572,768 L 572,767 L 573,766 L 573,765 L 574,764 L 574,762 L 576,760 L 576,759 L 575,760 L 574,760 L 571,763 L 570,763 L 568,765 L 567,765 L 566,766 L 565,766 L 563,768 L 562,768 L 561,769 L 560,769 L 559,770 L 558,770 L 557,771 L 556,771 L 555,772 L 554,772 L 553,773 L 552,773 L 551,774 L 550,774 L 549,775 L 548,775 L 547,776 L 546,776 L 545,777 L 543,777 L 542,778 L 540,778 L 539,779 L 537,779 L 536,780 L 534,780 L 533,781 L 530,781 L 529,782 L 526,782 L 525,783 L 522,783 L 521,784 L 517,784 L 516,785 L 509,785 L 508,786 L 497,786 L 496,787 L 495,786 L 494,787 L 492,787 L 491,786 L 480,786 L 479,787 L 478,786 L 462,786 L 461,785 L 455,785 L 454,784 L 448,784 L 447,783 L 443,783 L 442,782 L 438,782 L 437,781 L 434,781 L 433,780 L 431,780 L 430,779 L 427,779 L 426,778 L 424,778 L 423,777 L 421,777 L 420,776 L 418,776 L 417,775 L 416,775 L 415,774 L 413,774 L 412,773 L 411,773 L 410,772 L 408,772 L 407,771 L 406,771 L 405,770 L 404,770 L 403,769 L 401,769 L 400,768 L 399,768 L 398,767 L 397,767 L 396,766 L 395,766 L 394,765 L 393,765 L 392,764 L 391,764 L 390,763 L 389,763 L 388,762 L 387,762 L 385,760 L 384,760 L 383,759 L 382,759 L 381,758 L 380,758 L 379,757 L 378,757 L 377,756 Z" fill="#ff5722" stroke="none" /><path d="M 801,645 L 800,646 L 801,647 L 801,673 L 811,673 L 811,645 Z" fill="#ff5722" stroke="none" /><path d="M 216,645 L 216,673 L 226,673 L 226,645 Z" fill="#ff5722" stroke="none" /><path d="M 624,643 L 620,647 L 619,647 L 606,660 L 605,660 L 595,670 L 594,670 L 592,672 L 592,673 L 593,672 L 597,672 L 598,673 L 600,673 L 601,672 L 603,672 L 604,673 L 605,673 L 606,672 L 607,673 L 608,673 L 609,672 L 610,672 L 611,673 L 617,673 L 618,672 L 619,673 L 623,673 L 624,672 L 625,672 L 626,673 L 639,673 L 640,672 L 641,672 L 642,673 L 645,673 L 646,672 L 678,672 L 678,670 L 679,669 L 679,649 L 678,648 L 678,644 L 664,644 L 663,643 L 662,644 L 653,644 L 652,643 Z" fill="#ff5722" stroke="none" /><path d="M 771,602 L 771,607 L 772,608 L 772,615 L 773,616 L 773,624 L 774,625 L 774,637 L 775,638 L 775,658 L 774,659 L 774,684 L 773,685 L 773,694 L 772,695 L 772,703 L 771,704 L 771,711 L 770,712 L 770,715 L 771,715 L 772,714 L 773,715 L 779,715 L 780,714 L 781,715 L 782,715 L 782,714 L 783,713 L 783,709 L 784,708 L 784,704 L 785,703 L 785,698 L 786,697 L 786,692 L 787,691 L 787,684 L 788,683 L 787,682 L 788,681 L 788,668 L 789,667 L 789,649 L 788,648 L 788,632 L 787,631 L 787,621 L 786,620 L 786,615 L 785,614 L 785,611 L 784,610 L 784,609 L 783,608 L 783,607 L 780,604 L 779,604 L 778,603 L 777,603 L 776,602 Z" fill="#ff5722" stroke="none" /><path d="M 256,601 L 255,602 L 251,602 L 250,603 L 248,603 L 243,608 L 243,609 L 242,610 L 242,612 L 241,613 L 241,618 L 240,619 L 240,626 L 239,627 L 240,628 L 239,629 L 239,679 L 240,680 L 240,690 L 241,691 L 241,697 L 242,698 L 242,703 L 243,704 L 243,708 L 244,709 L 244,714 L 245,715 L 247,715 L 248,714 L 249,715 L 250,714 L 253,714 L 254,715 L 257,715 L 257,713 L 256,712 L 256,706 L 255,705 L 255,700 L 254,699 L 254,688 L 253,687 L 253,661 L 252,660 L 252,658 L 253,657 L 252,656 L 253,655 L 253,631 L 254,630 L 254,620 L 255,619 L 255,612 L 256,611 L 256,605 L 257,604 L 257,601 Z" fill="#ff5722" stroke="none" /><path d="M 754,578 L 753,579 L 728,579 L 729,580 L 729,584 L 730,585 L 730,588 L 731,589 L 731,593 L 732,594 L 732,599 L 733,600 L 733,604 L 734,605 L 734,611 L 735,612 L 735,619 L 736,620 L 736,629 L 737,630 L 737,644 L 738,645 L 738,670 L 737,671 L 737,688 L 736,689 L 736,698 L 735,699 L 735,706 L 734,707 L 734,713 L 733,714 L 733,718 L 732,719 L 732,724 L 731,725 L 731,729 L 730,730 L 730,733 L 729,734 L 729,737 L 728,738 L 728,740 L 754,740 L 754,738 L 755,737 L 755,732 L 756,731 L 756,727 L 757,726 L 757,721 L 758,720 L 758,716 L 759,715 L 759,709 L 760,708 L 760,700 L 761,699 L 761,690 L 762,689 L 762,674 L 763,673 L 763,636 L 762,635 L 762,624 L 761,623 L 761,614 L 760,613 L 760,606 L 759,605 L 759,599 L 758,598 L 758,593 L 757,592 L 757,587 L 756,586 L 756,583 L 755,582 L 755,579 Z" fill="#ff5722" stroke="none" /><path d="M 299,578 L 298,579 L 272,579 L 272,584 L 271,585 L 271,590 L 270,591 L 270,594 L 269,595 L 269,600 L 268,601 L 268,607 L 267,608 L 267,616 L 266,617 L 266,624 L 265,625 L 265,638 L 264,639 L 264,671 L 265,672 L 265,674 L 264,675 L 264,676 L 265,677 L 265,690 L 266,691 L 266,700 L 267,701 L 267,709 L 268,710 L 268,715 L 269,716 L 269,721 L 270,722 L 270,726 L 271,727 L 271,731 L 272,732 L 272,736 L 273,737 L 273,739 L 274,740 L 299,740 L 299,737 L 298,736 L 298,733 L 297,732 L 297,729 L 296,728 L 296,725 L 295,724 L 295,719 L 294,718 L 294,713 L 293,712 L 293,707 L 292,706 L 292,698 L 291,697 L 291,686 L 290,685 L 290,664 L 289,663 L 290,662 L 290,632 L 291,631 L 291,621 L 292,620 L 292,613 L 293,612 L 293,607 L 294,606 L 294,601 L 295,600 L 295,595 L 296,594 L 296,590 L 297,589 L 297,585 L 298,584 L 298,581 L 299,580 Z" fill="#ff5722" stroke="none" /><path d="M 325,558 L 324,559 L 319,559 L 319,560 L 316,563 L 316,564 L 314,566 L 314,568 L 313,569 L 313,570 L 312,571 L 312,572 L 311,573 L 311,575 L 310,576 L 310,578 L 309,579 L 309,582 L 308,583 L 308,587 L 307,588 L 307,591 L 306,592 L 306,597 L 305,598 L 305,603 L 304,604 L 304,611 L 303,612 L 303,621 L 302,622 L 302,645 L 301,646 L 302,647 L 302,648 L 301,649 L 301,673 L 302,674 L 302,696 L 303,697 L 303,707 L 304,708 L 304,715 L 305,716 L 305,720 L 306,721 L 306,726 L 307,727 L 307,730 L 308,731 L 308,735 L 309,736 L 309,739 L 310,740 L 310,742 L 311,743 L 311,745 L 312,746 L 312,748 L 313,749 L 313,751 L 314,752 L 314,753 L 315,754 L 315,755 L 316,756 L 316,757 L 317,758 L 317,759 L 319,761 L 319,762 L 321,764 L 322,764 L 323,765 L 346,765 L 347,764 L 349,764 L 350,763 L 352,763 L 358,757 L 358,756 L 359,755 L 359,754 L 360,753 L 360,752 L 361,751 L 361,749 L 362,748 L 362,746 L 363,745 L 363,742 L 364,741 L 364,738 L 365,737 L 365,733 L 366,732 L 366,728 L 367,727 L 367,722 L 368,721 L 368,715 L 369,714 L 369,707 L 370,706 L 370,698 L 371,697 L 371,690 L 372,689 L 372,687 L 360,687 L 360,691 L 359,692 L 359,698 L 358,699 L 358,704 L 357,705 L 357,710 L 356,711 L 356,715 L 355,716 L 355,719 L 354,720 L 354,723 L 353,724 L 353,728 L 352,729 L 352,732 L 351,733 L 351,735 L 350,736 L 350,739 L 349,740 L 348,740 L 347,739 L 347,736 L 346,735 L 346,733 L 345,732 L 345,730 L 344,729 L 344,726 L 343,725 L 343,722 L 342,721 L 342,718 L 341,717 L 341,713 L 340,712 L 340,707 L 339,706 L 339,700 L 338,699 L 338,693 L 337,692 L 337,684 L 336,683 L 336,641 L 337,640 L 337,630 L 338,629 L 338,623 L 339,622 L 339,616 L 340,615 L 340,610 L 341,609 L 341,605 L 342,604 L 342,600 L 343,599 L 343,596 L 344,595 L 344,593 L 345,592 L 345,589 L 346,588 L 346,586 L 347,585 L 347,583 L 348,582 L 349,583 L 349,584 L 350,585 L 350,588 L 351,589 L 351,592 L 352,593 L 352,596 L 353,597 L 353,600 L 354,601 L 354,605 L 355,606 L 355,610 L 356,611 L 356,615 L 357,616 L 357,620 L 358,621 L 358,627 L 359,628 L 359,631 L 371,631 L 371,628 L 370,627 L 370,618 L 369,617 L 369,611 L 368,610 L 368,604 L 367,603 L 367,598 L 366,597 L 366,592 L 365,591 L 365,587 L 364,586 L 364,583 L 363,582 L 363,579 L 362,578 L 362,576 L 361,575 L 361,573 L 360,572 L 360,570 L 359,569 L 359,568 L 357,566 L 357,565 L 351,559 L 345,559 L 344,558 L 339,558 L 338,559 L 337,558 Z" fill="#ff5722" stroke="none" /><path d="M 682,556 L 681,557 L 679,557 L 678,558 L 677,558 L 676,559 L 675,559 L 671,563 L 671,564 L 669,566 L 669,567 L 668,568 L 668,569 L 667,570 L 667,572 L 666,573 L 666,576 L 665,577 L 665,580 L 664,581 L 664,583 L 663,584 L 663,588 L 662,589 L 662,593 L 661,594 L 661,599 L 660,600 L 660,605 L 659,606 L 659,613 L 658,614 L 658,622 L 657,623 L 657,631 L 668,631 L 668,629 L 669,628 L 669,621 L 670,620 L 670,616 L 671,615 L 671,611 L 672,610 L 672,606 L 673,605 L 673,601 L 674,600 L 674,597 L 675,596 L 675,593 L 676,592 L 676,589 L 677,588 L 677,585 L 678,584 L 678,583 L 679,582 L 680,583 L 680,585 L 681,586 L 681,588 L 682,589 L 682,591 L 683,592 L 683,594 L 684,595 L 684,598 L 685,599 L 685,602 L 686,603 L 686,607 L 687,608 L 687,612 L 688,613 L 688,616 L 689,617 L 689,624 L 690,625 L 690,632 L 691,633 L 691,642 L 692,643 L 692,679 L 691,680 L 691,689 L 690,690 L 690,696 L 689,697 L 689,703 L 688,704 L 688,709 L 687,710 L 687,714 L 686,715 L 686,718 L 685,719 L 685,723 L 684,724 L 684,726 L 683,727 L 683,730 L 682,731 L 682,733 L 681,734 L 681,736 L 680,737 L 680,739 L 679,740 L 678,739 L 678,738 L 677,737 L 677,735 L 676,734 L 676,732 L 675,731 L 675,728 L 674,727 L 674,723 L 673,722 L 673,719 L 672,718 L 672,713 L 671,712 L 671,708 L 670,707 L 670,702 L 669,701 L 669,697 L 668,696 L 668,690 L 667,689 L 667,687 L 656,687 L 656,691 L 657,692 L 657,703 L 658,704 L 658,712 L 659,713 L 659,719 L 660,720 L 660,725 L 661,726 L 661,731 L 662,732 L 662,736 L 663,737 L 663,740 L 664,741 L 664,744 L 665,745 L 665,746 L 666,747 L 666,749 L 667,750 L 667,751 L 668,752 L 668,753 L 669,754 L 669,755 L 672,758 L 672,759 L 673,759 L 676,762 L 705,762 L 707,760 L 707,759 L 710,756 L 710,755 L 711,754 L 711,753 L 713,751 L 713,750 L 714,749 L 714,747 L 715,746 L 715,745 L 716,744 L 716,742 L 717,741 L 717,739 L 718,738 L 718,735 L 719,734 L 719,732 L 720,731 L 720,727 L 721,726 L 721,722 L 722,721 L 722,716 L 723,715 L 723,708 L 724,707 L 724,697 L 725,696 L 725,685 L 726,684 L 726,633 L 725,632 L 725,619 L 724,618 L 724,612 L 723,611 L 723,603 L 722,602 L 722,597 L 721,596 L 721,590 L 720,589 L 720,586 L 719,585 L 719,582 L 718,581 L 718,578 L 717,577 L 717,575 L 716,574 L 716,572 L 715,571 L 715,570 L 714,569 L 714,568 L 713,567 L 713,566 L 712,565 L 712,564 L 711,563 L 711,562 L 705,556 Z" fill="#ff5722" stroke="none" /><path d="M 639,404 L 637,406 L 637,413 L 638,414 L 638,415 L 639,416 L 639,418 L 640,419 L 640,420 L 641,421 L 641,422 L 642,423 L 642,424 L 644,426 L 644,427 L 649,432 L 650,432 L 652,434 L 653,434 L 654,435 L 655,435 L 656,436 L 658,436 L 659,437 L 664,437 L 665,438 L 666,438 L 667,437 L 668,437 L 669,436 L 669,433 L 668,432 L 668,431 L 667,430 L 664,430 L 663,429 L 662,429 L 661,428 L 660,428 L 652,420 L 652,419 L 651,418 L 651,417 L 650,416 L 650,414 L 649,413 L 649,412 L 648,411 L 648,410 L 647,409 L 647,408 L 644,405 L 643,405 L 642,404 Z" fill="#ff5722" stroke="none" /><path d="M 768,395 L 768,396 L 769,397 L 769,399 L 770,400 L 770,401 L 771,402 L 771,404 L 772,405 L 772,408 L 773,409 L 773,411 L 774,412 L 774,414 L 775,415 L 775,417 L 776,418 L 776,420 L 777,421 L 777,424 L 778,425 L 778,428 L 779,429 L 779,432 L 780,433 L 780,436 L 781,437 L 781,441 L 782,442 L 782,446 L 783,447 L 783,452 L 784,453 L 784,460 L 785,461 L 785,467 L 786,468 L 786,479 L 787,480 L 787,498 L 788,499 L 787,500 L 787,501 L 788,502 L 788,503 L 787,504 L 787,527 L 786,528 L 786,536 L 785,537 L 785,544 L 784,545 L 784,550 L 783,551 L 783,556 L 782,557 L 782,561 L 781,562 L 781,566 L 780,567 L 780,570 L 779,571 L 779,575 L 778,576 L 778,579 L 777,580 L 777,583 L 776,584 L 776,585 L 780,585 L 781,586 L 783,586 L 784,587 L 785,587 L 786,588 L 787,588 L 789,590 L 790,590 L 795,595 L 795,596 L 797,598 L 797,599 L 798,600 L 798,601 L 799,602 L 799,604 L 800,605 L 800,607 L 801,608 L 801,611 L 802,612 L 802,619 L 803,619 L 803,618 L 804,617 L 804,614 L 805,613 L 805,611 L 806,610 L 806,607 L 807,606 L 807,604 L 808,603 L 808,599 L 809,598 L 809,595 L 810,594 L 810,589 L 811,588 L 811,582 L 812,581 L 812,573 L 813,572 L 813,562 L 814,561 L 813,560 L 814,559 L 814,533 L 813,532 L 813,521 L 812,520 L 812,513 L 811,512 L 811,506 L 810,505 L 810,500 L 809,499 L 809,495 L 808,494 L 808,491 L 807,490 L 807,486 L 806,485 L 806,482 L 805,481 L 805,478 L 804,477 L 804,474 L 803,473 L 803,471 L 802,470 L 802,468 L 801,467 L 801,464 L 800,463 L 800,461 L 799,460 L 799,458 L 798,457 L 798,456 L 797,455 L 797,453 L 796,452 L 796,451 L 795,450 L 795,448 L 794,447 L 794,445 L 793,444 L 793,443 L 792,442 L 792,441 L 791,440 L 791,439 L 790,438 L 790,436 L 789,435 L 789,434 L 788,433 L 788,432 L 787,431 L 787,429 L 786,428 L 786,427 L 785,426 L 785,425 L 784,424 L 784,423 L 783,422 L 783,421 L 782,420 L 782,419 L 780,417 L 780,416 L 779,415 L 779,414 L 778,413 L 778,412 L 777,411 L 777,410 L 776,409 L 776,408 L 774,406 L 774,405 L 773,404 L 773,403 L 772,402 L 772,401 L 770,399 L 770,398 L 769,397 L 769,396 Z" fill="#ff5722" stroke="none" /><path d="M 454,369 L 453,370 L 450,370 L 449,371 L 447,371 L 446,372 L 444,372 L 443,373 L 442,373 L 441,374 L 439,374 L 438,375 L 437,375 L 436,376 L 435,376 L 433,378 L 432,378 L 430,380 L 429,380 L 427,382 L 426,382 L 419,389 L 419,390 L 416,393 L 416,394 L 415,395 L 415,396 L 413,398 L 413,399 L 412,400 L 412,401 L 411,402 L 411,403 L 410,404 L 410,405 L 409,406 L 409,408 L 408,409 L 408,411 L 407,412 L 407,415 L 406,416 L 406,419 L 405,420 L 405,436 L 406,437 L 406,441 L 407,442 L 407,445 L 408,446 L 408,448 L 409,449 L 409,451 L 410,452 L 410,454 L 411,455 L 411,456 L 412,457 L 412,458 L 414,460 L 414,461 L 415,462 L 415,463 L 417,465 L 417,466 L 420,469 L 420,470 L 423,473 L 423,474 L 434,485 L 435,485 L 439,489 L 440,489 L 443,492 L 444,492 L 446,494 L 447,494 L 449,496 L 450,496 L 451,497 L 452,497 L 454,499 L 455,499 L 456,500 L 457,500 L 458,501 L 459,501 L 460,502 L 461,502 L 462,503 L 463,503 L 464,504 L 465,504 L 467,506 L 468,506 L 469,507 L 470,507 L 471,508 L 472,508 L 473,509 L 474,509 L 475,510 L 476,510 L 478,512 L 479,512 L 480,513 L 481,513 L 483,515 L 484,515 L 485,516 L 486,516 L 488,518 L 489,518 L 490,519 L 491,519 L 493,521 L 494,521 L 496,523 L 497,523 L 499,525 L 500,525 L 502,527 L 503,527 L 507,531 L 508,531 L 513,536 L 514,536 L 526,548 L 526,549 L 530,553 L 530,554 L 532,556 L 532,557 L 535,560 L 535,561 L 537,563 L 537,564 L 538,565 L 538,566 L 539,567 L 539,568 L 540,569 L 540,570 L 541,571 L 541,572 L 542,573 L 542,575 L 543,576 L 543,578 L 544,579 L 544,581 L 545,582 L 545,586 L 546,587 L 546,603 L 545,604 L 545,608 L 544,609 L 544,610 L 543,611 L 543,613 L 542,614 L 542,615 L 541,616 L 541,617 L 540,618 L 540,619 L 538,621 L 538,622 L 531,629 L 530,629 L 528,631 L 527,631 L 525,633 L 524,633 L 523,634 L 522,634 L 521,635 L 520,635 L 519,636 L 518,636 L 517,637 L 515,637 L 514,638 L 512,638 L 511,639 L 509,639 L 508,640 L 505,640 L 504,641 L 499,641 L 498,642 L 490,642 L 489,643 L 371,643 L 370,644 L 368,644 L 367,643 L 366,643 L 365,644 L 350,644 L 350,649 L 349,650 L 349,666 L 350,667 L 350,669 L 351,670 L 351,671 L 352,672 L 389,672 L 390,673 L 393,673 L 394,672 L 395,673 L 400,673 L 401,672 L 402,673 L 403,672 L 404,673 L 405,672 L 406,673 L 407,673 L 408,672 L 411,672 L 412,673 L 413,672 L 414,673 L 415,673 L 416,672 L 417,672 L 418,673 L 423,673 L 424,672 L 430,672 L 431,673 L 432,673 L 433,672 L 548,672 L 549,671 L 550,672 L 551,671 L 555,671 L 556,670 L 559,670 L 560,669 L 562,669 L 563,668 L 564,668 L 565,667 L 567,667 L 568,666 L 569,666 L 571,664 L 572,664 L 573,663 L 574,663 L 577,660 L 578,660 L 580,658 L 581,658 L 589,650 L 589,649 L 593,645 L 593,644 L 595,642 L 595,641 L 597,639 L 597,638 L 598,637 L 598,636 L 599,635 L 599,634 L 600,633 L 600,631 L 601,630 L 601,629 L 602,628 L 602,626 L 603,625 L 603,622 L 604,621 L 604,618 L 605,617 L 605,609 L 606,608 L 606,597 L 605,596 L 605,591 L 604,590 L 604,587 L 603,586 L 603,584 L 602,583 L 602,581 L 601,580 L 601,578 L 600,577 L 600,576 L 599,575 L 599,573 L 598,572 L 598,571 L 597,570 L 597,569 L 596,568 L 596,567 L 595,566 L 595,565 L 594,564 L 594,563 L 592,561 L 592,560 L 591,559 L 591,558 L 589,556 L 589,555 L 587,553 L 587,552 L 585,550 L 585,549 L 583,547 L 583,546 L 579,542 L 580,541 L 581,541 L 582,542 L 583,542 L 584,543 L 585,543 L 587,545 L 588,545 L 589,546 L 590,546 L 591,547 L 592,547 L 595,550 L 596,550 L 599,553 L 600,553 L 609,562 L 609,563 L 613,567 L 613,568 L 614,569 L 614,570 L 615,570 L 615,569 L 614,568 L 614,565 L 613,564 L 613,562 L 612,561 L 612,559 L 611,558 L 611,557 L 610,556 L 610,554 L 609,553 L 609,552 L 608,551 L 608,550 L 607,549 L 607,548 L 606,547 L 606,546 L 604,544 L 604,543 L 603,542 L 603,541 L 601,539 L 601,538 L 599,536 L 599,535 L 596,532 L 596,531 L 591,526 L 591,525 L 576,510 L 575,510 L 571,506 L 570,506 L 567,503 L 566,503 L 563,500 L 562,500 L 560,498 L 559,498 L 558,497 L 557,497 L 555,495 L 554,495 L 553,494 L 552,494 L 550,492 L 549,492 L 548,491 L 547,491 L 546,490 L 545,490 L 544,489 L 543,489 L 542,488 L 541,488 L 540,487 L 539,487 L 537,485 L 536,485 L 535,484 L 534,484 L 533,483 L 532,483 L 531,482 L 529,482 L 528,481 L 527,481 L 526,480 L 525,480 L 524,479 L 523,479 L 522,478 L 520,478 L 519,477 L 518,477 L 517,476 L 516,476 L 515,475 L 513,475 L 512,474 L 511,474 L 510,473 L 508,473 L 507,472 L 506,472 L 505,471 L 503,471 L 502,470 L 501,470 L 500,469 L 498,469 L 497,468 L 496,468 L 495,467 L 494,467 L 493,466 L 491,466 L 490,465 L 489,465 L 488,464 L 487,464 L 486,463 L 485,463 L 484,462 L 483,462 L 482,461 L 481,461 L 480,460 L 479,460 L 478,459 L 477,459 L 476,458 L 475,458 L 474,457 L 473,457 L 472,456 L 471,456 L 470,455 L 469,455 L 467,453 L 466,453 L 464,451 L 463,451 L 461,449 L 460,449 L 455,444 L 454,444 L 449,439 L 449,438 L 446,435 L 446,434 L 444,432 L 444,431 L 443,430 L 443,429 L 442,428 L 442,427 L 441,426 L 441,424 L 440,423 L 440,420 L 439,419 L 439,415 L 438,414 L 438,403 L 439,402 L 439,398 L 440,397 L 440,394 L 441,393 L 441,391 L 442,390 L 442,389 L 443,388 L 443,386 L 444,385 L 444,384 L 446,382 L 446,381 L 447,380 L 447,379 L 449,377 L 449,376 L 452,373 L 452,372 L 455,369 Z" fill="#ff5722" stroke="none" /><path d="M 354,292 L 352,294 L 351,294 L 350,295 L 349,295 L 348,296 L 346,296 L 345,297 L 344,297 L 343,298 L 342,298 L 340,300 L 339,300 L 338,301 L 337,301 L 335,303 L 334,303 L 333,304 L 332,304 L 330,306 L 329,306 L 327,308 L 326,308 L 324,310 L 323,310 L 320,313 L 319,313 L 317,315 L 316,315 L 313,318 L 312,318 L 308,322 L 307,322 L 301,328 L 300,328 L 281,347 L 281,348 L 275,354 L 275,355 L 271,359 L 271,360 L 267,364 L 267,365 L 264,368 L 264,369 L 262,371 L 262,372 L 259,375 L 259,376 L 257,378 L 257,379 L 255,381 L 255,382 L 254,383 L 254,384 L 252,386 L 252,387 L 250,389 L 250,390 L 249,391 L 249,392 L 248,393 L 248,394 L 246,396 L 246,397 L 245,398 L 245,399 L 244,400 L 244,401 L 243,402 L 243,403 L 242,404 L 242,405 L 241,406 L 241,407 L 240,408 L 240,409 L 239,410 L 239,411 L 238,412 L 238,413 L 237,414 L 237,415 L 236,416 L 236,417 L 235,418 L 235,419 L 234,420 L 234,422 L 233,423 L 233,424 L 232,425 L 232,427 L 231,428 L 231,429 L 230,430 L 230,431 L 229,432 L 229,434 L 228,435 L 228,436 L 227,437 L 227,440 L 226,441 L 226,443 L 225,444 L 225,445 L 224,446 L 224,448 L 223,449 L 223,452 L 222,453 L 222,455 L 221,456 L 221,459 L 220,460 L 220,463 L 219,464 L 219,466 L 218,467 L 218,470 L 217,471 L 217,475 L 216,476 L 216,480 L 215,481 L 215,486 L 214,487 L 214,492 L 213,493 L 213,499 L 212,500 L 212,511 L 211,512 L 211,523 L 210,524 L 210,543 L 211,544 L 211,556 L 212,557 L 212,566 L 213,567 L 213,573 L 214,574 L 214,581 L 215,582 L 215,587 L 216,588 L 216,591 L 217,592 L 217,596 L 218,597 L 218,600 L 219,601 L 219,604 L 220,605 L 220,608 L 221,609 L 221,611 L 222,612 L 222,615 L 223,616 L 223,618 L 223,617 L 224,616 L 224,611 L 225,610 L 225,607 L 226,606 L 226,604 L 227,603 L 227,602 L 228,601 L 228,600 L 229,599 L 229,598 L 230,597 L 230,596 L 237,589 L 238,589 L 240,587 L 242,587 L 243,586 L 246,586 L 247,585 L 252,585 L 252,584 L 251,583 L 251,579 L 250,578 L 250,575 L 249,574 L 249,569 L 248,568 L 248,563 L 247,562 L 247,556 L 246,555 L 246,548 L 245,547 L 245,537 L 244,536 L 244,498 L 245,497 L 245,487 L 246,486 L 246,479 L 247,478 L 247,473 L 248,472 L 248,467 L 249,466 L 249,462 L 250,461 L 250,457 L 251,456 L 251,453 L 252,452 L 252,448 L 253,447 L 253,444 L 254,443 L 254,441 L 255,440 L 255,437 L 256,436 L 256,434 L 257,433 L 257,430 L 258,429 L 258,427 L 259,426 L 259,424 L 260,423 L 260,421 L 261,420 L 261,419 L 262,418 L 262,416 L 263,415 L 263,414 L 264,413 L 264,411 L 265,410 L 265,409 L 266,408 L 266,406 L 267,405 L 267,404 L 268,403 L 268,401 L 269,400 L 269,399 L 270,398 L 270,397 L 271,396 L 271,395 L 272,394 L 272,393 L 273,392 L 273,391 L 274,390 L 274,389 L 275,388 L 275,387 L 276,386 L 276,385 L 277,384 L 277,383 L 279,381 L 279,380 L 280,379 L 280,378 L 281,377 L 281,376 L 283,374 L 283,373 L 285,371 L 285,370 L 286,369 L 286,368 L 288,366 L 288,365 L 290,363 L 290,362 L 292,360 L 292,359 L 295,356 L 295,355 L 298,352 L 298,351 L 301,348 L 301,347 L 305,343 L 305,342 L 309,338 L 309,337 L 315,331 L 315,330 L 325,320 L 325,319 L 333,311 L 334,311 L 345,300 L 346,300 L 350,296 L 351,296 L 354,293 L 355,293 L 355,292 Z" fill="#ff5722" stroke="none" /><path d="M 474,130 L 474,132 L 475,133 L 475,136 L 476,137 L 476,139 L 477,140 L 477,144 L 478,145 L 478,147 L 479,148 L 479,150 L 480,151 L 480,153 L 481,154 L 481,156 L 482,157 L 482,159 L 483,160 L 483,161 L 484,162 L 484,163 L 485,164 L 485,166 L 486,167 L 486,168 L 487,169 L 487,170 L 489,172 L 489,173 L 490,174 L 490,175 L 491,176 L 491,177 L 493,179 L 493,180 L 494,181 L 494,182 L 496,184 L 496,185 L 497,186 L 497,187 L 499,189 L 499,190 L 502,193 L 502,194 L 504,196 L 504,197 L 507,200 L 507,201 L 510,204 L 510,205 L 515,210 L 515,211 L 520,216 L 520,217 L 526,223 L 526,224 L 537,235 L 537,236 L 558,257 L 557,258 L 556,258 L 555,257 L 554,257 L 553,256 L 552,256 L 551,255 L 549,255 L 548,254 L 547,254 L 546,253 L 545,253 L 544,252 L 542,252 L 541,251 L 540,251 L 539,250 L 538,250 L 537,249 L 535,249 L 534,248 L 533,248 L 532,247 L 531,247 L 530,246 L 528,246 L 527,245 L 526,245 L 525,244 L 524,244 L 523,243 L 522,243 L 521,242 L 520,242 L 519,241 L 517,241 L 516,240 L 515,240 L 514,239 L 513,239 L 512,238 L 511,238 L 510,237 L 509,237 L 508,236 L 507,236 L 506,235 L 505,235 L 504,234 L 503,234 L 502,233 L 501,233 L 499,231 L 498,231 L 497,230 L 496,230 L 495,229 L 494,229 L 493,228 L 492,228 L 490,226 L 489,226 L 488,225 L 487,225 L 486,224 L 485,224 L 483,222 L 482,222 L 481,221 L 480,221 L 478,219 L 477,219 L 475,217 L 474,217 L 473,216 L 472,216 L 470,214 L 469,214 L 467,212 L 466,212 L 464,210 L 463,210 L 461,208 L 460,208 L 457,205 L 456,205 L 453,202 L 452,202 L 449,199 L 448,199 L 446,197 L 445,197 L 442,194 L 441,194 L 438,191 L 437,191 L 431,185 L 430,185 L 415,170 L 415,169 L 410,164 L 410,163 L 405,158 L 405,157 L 402,154 L 402,153 L 400,151 L 400,150 L 398,148 L 398,147 L 396,145 L 396,144 L 394,142 L 394,141 L 393,140 L 393,142 L 394,143 L 394,144 L 395,145 L 395,146 L 396,147 L 396,149 L 397,150 L 397,152 L 398,153 L 398,155 L 399,156 L 399,157 L 400,158 L 400,160 L 401,161 L 401,163 L 402,164 L 402,166 L 403,167 L 403,169 L 404,170 L 404,171 L 405,172 L 405,174 L 406,175 L 406,176 L 407,177 L 407,178 L 408,179 L 408,180 L 409,181 L 409,182 L 410,183 L 410,185 L 411,186 L 411,187 L 412,188 L 412,189 L 414,191 L 414,192 L 415,193 L 415,194 L 417,196 L 417,197 L 418,198 L 418,199 L 420,201 L 420,202 L 422,204 L 422,205 L 424,207 L 424,208 L 427,211 L 427,212 L 431,216 L 431,217 L 451,237 L 452,237 L 456,241 L 457,241 L 460,244 L 461,244 L 463,246 L 464,246 L 467,249 L 468,249 L 470,251 L 471,251 L 473,253 L 474,253 L 476,255 L 477,255 L 479,257 L 480,257 L 481,258 L 482,258 L 484,260 L 485,260 L 486,261 L 487,261 L 489,263 L 490,263 L 491,264 L 492,264 L 493,265 L 494,265 L 495,266 L 496,266 L 498,268 L 499,268 L 500,269 L 501,269 L 502,270 L 503,270 L 504,271 L 505,271 L 506,272 L 507,272 L 508,273 L 509,273 L 510,274 L 511,274 L 513,276 L 514,276 L 515,277 L 516,277 L 517,278 L 518,278 L 519,279 L 521,279 L 522,280 L 523,280 L 524,281 L 525,281 L 526,282 L 527,282 L 528,283 L 529,283 L 530,284 L 531,284 L 532,285 L 533,285 L 534,286 L 535,286 L 536,287 L 537,287 L 538,288 L 537,289 L 523,289 L 522,290 L 520,290 L 519,289 L 518,290 L 502,290 L 501,289 L 499,289 L 498,288 L 497,288 L 496,287 L 495,287 L 494,286 L 493,286 L 492,285 L 491,285 L 490,284 L 489,284 L 487,282 L 486,282 L 484,280 L 483,280 L 482,279 L 481,279 L 479,277 L 478,277 L 476,275 L 475,275 L 473,273 L 472,273 L 470,271 L 469,271 L 467,269 L 466,269 L 464,267 L 463,267 L 461,265 L 460,265 L 458,263 L 457,263 L 454,260 L 453,260 L 451,258 L 450,258 L 448,256 L 447,256 L 446,255 L 445,255 L 444,254 L 443,254 L 442,253 L 441,253 L 440,252 L 437,252 L 436,251 L 431,251 L 430,250 L 415,250 L 414,251 L 409,251 L 408,252 L 405,252 L 404,253 L 401,253 L 400,254 L 399,254 L 398,255 L 396,255 L 395,256 L 393,256 L 392,257 L 391,257 L 390,258 L 388,258 L 387,259 L 385,259 L 384,260 L 383,260 L 382,261 L 380,261 L 379,262 L 378,262 L 377,263 L 376,263 L 375,264 L 374,264 L 373,265 L 372,265 L 371,266 L 369,266 L 367,268 L 365,268 L 364,269 L 363,269 L 361,271 L 360,271 L 359,272 L 358,272 L 357,273 L 356,273 L 355,274 L 354,274 L 353,275 L 353,276 L 373,276 L 374,277 L 392,277 L 393,278 L 405,278 L 406,279 L 416,279 L 417,280 L 416,281 L 413,281 L 412,282 L 410,282 L 409,283 L 407,283 L 406,284 L 405,284 L 404,285 L 402,285 L 401,286 L 400,286 L 399,287 L 398,287 L 397,288 L 396,288 L 395,289 L 394,289 L 393,290 L 392,290 L 391,291 L 390,291 L 389,292 L 388,292 L 386,294 L 385,294 L 384,295 L 383,295 L 380,298 L 379,298 L 376,301 L 375,301 L 370,306 L 369,306 L 351,324 L 351,325 L 347,329 L 347,330 L 343,334 L 343,335 L 341,337 L 341,338 L 339,340 L 339,341 L 337,343 L 337,344 L 335,346 L 335,347 L 334,348 L 334,349 L 333,350 L 333,351 L 331,353 L 331,354 L 330,355 L 330,356 L 329,357 L 329,358 L 328,359 L 328,360 L 327,361 L 327,362 L 326,363 L 326,364 L 324,366 L 324,368 L 323,369 L 323,370 L 322,371 L 322,372 L 321,373 L 321,375 L 320,376 L 320,378 L 319,379 L 319,381 L 318,382 L 318,384 L 317,385 L 317,387 L 316,388 L 316,391 L 315,392 L 315,396 L 314,397 L 314,402 L 313,403 L 313,406 L 313,405 L 314,404 L 314,403 L 315,402 L 315,401 L 317,399 L 317,398 L 319,396 L 319,395 L 328,386 L 329,386 L 331,384 L 332,384 L 334,382 L 335,382 L 336,381 L 337,381 L 338,380 L 340,380 L 341,379 L 342,379 L 343,380 L 342,381 L 342,382 L 341,383 L 341,384 L 340,385 L 340,386 L 339,387 L 339,389 L 338,390 L 338,392 L 337,393 L 337,396 L 336,397 L 336,399 L 335,400 L 335,402 L 334,403 L 334,407 L 333,408 L 333,411 L 332,412 L 332,417 L 331,418 L 331,424 L 330,425 L 330,434 L 329,435 L 329,449 L 330,450 L 330,457 L 331,458 L 331,463 L 332,464 L 332,468 L 333,469 L 333,471 L 334,472 L 334,474 L 335,475 L 335,477 L 336,478 L 336,479 L 337,480 L 337,482 L 338,483 L 338,484 L 339,485 L 339,487 L 340,488 L 340,489 L 342,491 L 342,492 L 343,493 L 343,494 L 344,495 L 344,496 L 346,498 L 346,499 L 348,501 L 348,502 L 350,504 L 350,505 L 351,506 L 351,504 L 350,503 L 350,487 L 351,486 L 351,481 L 352,480 L 352,477 L 353,476 L 353,474 L 354,473 L 354,471 L 355,470 L 355,469 L 356,468 L 357,469 L 357,471 L 358,472 L 358,473 L 359,474 L 359,475 L 360,476 L 360,478 L 362,480 L 362,481 L 363,482 L 363,483 L 364,484 L 364,485 L 365,486 L 365,487 L 367,489 L 367,490 L 368,491 L 368,492 L 370,494 L 370,495 L 371,496 L 371,497 L 373,499 L 373,500 L 376,503 L 376,504 L 379,507 L 379,508 L 384,513 L 384,514 L 390,520 L 391,520 L 397,526 L 398,526 L 401,529 L 402,529 L 404,531 L 405,531 L 407,533 L 408,533 L 409,534 L 410,534 L 412,536 L 413,536 L 414,537 L 415,537 L 416,538 L 417,538 L 419,540 L 420,540 L 421,541 L 422,541 L 423,542 L 425,542 L 426,543 L 427,543 L 428,544 L 429,544 L 430,545 L 431,545 L 432,546 L 433,546 L 434,547 L 436,547 L 437,548 L 438,548 L 439,549 L 440,549 L 441,550 L 443,550 L 444,551 L 445,551 L 446,552 L 448,552 L 450,554 L 452,554 L 453,555 L 454,555 L 455,556 L 456,556 L 457,557 L 458,557 L 459,558 L 460,558 L 462,560 L 463,560 L 464,561 L 465,561 L 466,562 L 467,562 L 469,564 L 470,564 L 472,566 L 473,566 L 475,568 L 476,568 L 480,572 L 481,572 L 487,578 L 487,579 L 491,583 L 491,584 L 492,585 L 492,586 L 493,587 L 493,588 L 494,589 L 494,591 L 495,592 L 495,601 L 494,602 L 494,604 L 493,605 L 493,606 L 492,607 L 492,608 L 491,609 L 491,610 L 489,612 L 489,613 L 480,622 L 479,622 L 477,624 L 476,624 L 476,625 L 479,625 L 480,624 L 483,624 L 484,623 L 485,623 L 486,622 L 488,622 L 489,621 L 490,621 L 491,620 L 492,620 L 493,619 L 494,619 L 495,618 L 496,618 L 498,616 L 499,616 L 508,607 L 508,606 L 510,604 L 510,603 L 511,602 L 511,601 L 512,600 L 512,599 L 513,598 L 513,597 L 514,596 L 514,594 L 515,593 L 515,591 L 516,590 L 516,585 L 517,584 L 517,578 L 516,577 L 516,572 L 515,571 L 515,568 L 514,567 L 514,566 L 513,565 L 513,563 L 512,562 L 512,561 L 511,560 L 511,559 L 510,558 L 510,557 L 508,555 L 508,554 L 506,552 L 506,551 L 502,547 L 502,546 L 493,537 L 492,537 L 488,533 L 487,533 L 484,530 L 483,530 L 481,528 L 480,528 L 478,526 L 477,526 L 475,524 L 474,524 L 473,523 L 472,523 L 470,521 L 469,521 L 468,520 L 467,520 L 466,519 L 465,519 L 464,518 L 463,518 L 462,517 L 461,517 L 460,516 L 459,516 L 458,515 L 457,515 L 456,514 L 455,514 L 454,513 L 453,513 L 452,512 L 451,512 L 450,511 L 449,511 L 448,510 L 447,510 L 446,509 L 445,509 L 444,508 L 443,508 L 442,507 L 441,507 L 440,506 L 439,506 L 438,505 L 437,505 L 435,503 L 434,503 L 433,502 L 432,502 L 430,500 L 429,500 L 427,498 L 426,498 L 424,496 L 423,496 L 419,492 L 418,492 L 404,478 L 404,477 L 401,474 L 401,473 L 398,470 L 398,469 L 397,468 L 397,467 L 395,465 L 395,464 L 394,463 L 394,462 L 392,460 L 392,459 L 391,458 L 391,457 L 390,456 L 390,455 L 389,454 L 389,452 L 388,451 L 388,449 L 387,448 L 387,446 L 386,445 L 386,442 L 385,441 L 385,438 L 384,437 L 384,419 L 385,418 L 385,410 L 386,409 L 386,404 L 387,403 L 387,399 L 388,398 L 388,395 L 389,394 L 389,391 L 390,390 L 390,388 L 391,387 L 391,385 L 392,384 L 392,383 L 393,382 L 393,381 L 394,380 L 394,378 L 396,376 L 396,375 L 397,374 L 397,373 L 399,371 L 399,370 L 400,369 L 400,368 L 403,365 L 403,364 L 406,361 L 406,360 L 419,347 L 420,347 L 424,343 L 425,343 L 428,340 L 429,340 L 431,338 L 432,338 L 434,336 L 435,336 L 436,335 L 437,335 L 438,334 L 439,334 L 440,333 L 441,333 L 442,332 L 443,332 L 444,331 L 445,331 L 446,330 L 448,330 L 449,329 L 450,329 L 451,328 L 453,328 L 454,327 L 456,327 L 457,326 L 461,326 L 462,325 L 465,325 L 466,324 L 478,324 L 479,323 L 472,323 L 471,322 L 466,322 L 465,321 L 461,321 L 460,320 L 456,320 L 455,319 L 453,319 L 452,318 L 448,318 L 447,317 L 444,317 L 443,316 L 440,316 L 439,315 L 435,315 L 434,314 L 435,313 L 436,313 L 437,312 L 438,312 L 439,311 L 441,311 L 442,310 L 444,310 L 445,309 L 447,309 L 448,308 L 451,308 L 452,307 L 455,307 L 456,306 L 475,306 L 476,307 L 481,307 L 482,308 L 485,308 L 486,309 L 488,309 L 489,310 L 491,310 L 492,311 L 494,311 L 495,312 L 496,312 L 497,313 L 498,313 L 499,314 L 501,314 L 502,315 L 503,315 L 505,317 L 506,317 L 507,318 L 508,318 L 510,320 L 511,320 L 513,322 L 514,322 L 516,324 L 517,324 L 521,328 L 522,328 L 529,335 L 530,335 L 532,337 L 531,338 L 528,338 L 527,339 L 521,339 L 520,340 L 516,340 L 515,341 L 510,341 L 509,342 L 505,342 L 504,343 L 502,343 L 501,344 L 498,344 L 497,345 L 495,345 L 494,346 L 492,346 L 491,347 L 488,347 L 487,348 L 485,348 L 484,349 L 481,349 L 480,350 L 477,350 L 477,351 L 483,351 L 484,352 L 488,352 L 489,353 L 492,353 L 493,354 L 495,354 L 496,355 L 498,355 L 499,356 L 501,356 L 502,357 L 503,357 L 504,358 L 505,358 L 506,359 L 507,359 L 508,360 L 509,360 L 510,361 L 511,361 L 512,362 L 513,362 L 514,363 L 515,363 L 517,365 L 518,365 L 521,368 L 522,368 L 527,373 L 527,374 L 528,375 L 528,377 L 527,378 L 527,379 L 520,386 L 519,386 L 516,389 L 515,389 L 513,391 L 515,391 L 516,392 L 517,392 L 518,393 L 520,393 L 521,394 L 523,394 L 524,395 L 526,395 L 527,396 L 535,396 L 536,397 L 549,397 L 550,398 L 559,398 L 560,399 L 564,399 L 565,400 L 569,400 L 570,401 L 572,401 L 573,402 L 575,402 L 576,403 L 579,403 L 580,404 L 582,404 L 583,405 L 584,405 L 585,406 L 586,406 L 587,407 L 588,407 L 589,408 L 590,408 L 592,410 L 593,410 L 595,412 L 596,412 L 604,420 L 604,421 L 606,423 L 606,424 L 609,427 L 609,428 L 611,430 L 611,431 L 612,432 L 612,433 L 614,435 L 614,436 L 616,438 L 616,439 L 617,440 L 617,441 L 618,442 L 618,443 L 619,444 L 619,445 L 620,446 L 620,447 L 621,448 L 621,449 L 622,450 L 622,451 L 623,452 L 623,454 L 624,455 L 623,456 L 622,456 L 621,455 L 620,455 L 619,454 L 618,454 L 617,453 L 616,453 L 615,452 L 614,452 L 613,451 L 612,451 L 611,450 L 610,450 L 609,449 L 599,449 L 599,450 L 600,450 L 601,451 L 601,452 L 607,458 L 608,458 L 611,461 L 612,461 L 614,463 L 615,463 L 616,464 L 617,464 L 619,466 L 620,466 L 622,468 L 623,468 L 624,469 L 625,469 L 626,470 L 627,470 L 629,472 L 630,472 L 631,473 L 632,473 L 633,474 L 634,474 L 635,475 L 636,475 L 637,476 L 638,476 L 639,477 L 640,477 L 641,478 L 642,478 L 643,477 L 644,477 L 645,476 L 646,476 L 648,474 L 649,474 L 651,472 L 652,472 L 654,470 L 655,470 L 666,459 L 666,458 L 668,456 L 668,455 L 669,454 L 669,453 L 671,451 L 663,451 L 662,452 L 660,452 L 659,451 L 654,451 L 653,450 L 651,450 L 650,449 L 649,449 L 647,447 L 646,447 L 643,444 L 642,444 L 640,442 L 640,441 L 635,436 L 635,435 L 634,434 L 634,433 L 632,431 L 632,430 L 631,429 L 631,428 L 630,427 L 630,426 L 629,425 L 629,424 L 628,423 L 628,422 L 627,421 L 627,420 L 626,419 L 626,417 L 625,416 L 625,414 L 624,413 L 624,411 L 623,410 L 623,409 L 622,408 L 622,405 L 621,404 L 621,402 L 620,401 L 620,398 L 619,397 L 619,393 L 618,392 L 618,388 L 617,387 L 617,384 L 613,380 L 612,380 L 610,378 L 609,378 L 608,377 L 607,377 L 606,376 L 605,376 L 604,375 L 601,375 L 600,374 L 597,374 L 596,373 L 589,373 L 588,372 L 589,371 L 590,371 L 591,370 L 592,370 L 593,369 L 595,369 L 596,368 L 597,368 L 598,367 L 601,367 L 602,366 L 609,366 L 610,365 L 620,365 L 621,366 L 628,366 L 629,367 L 633,367 L 634,368 L 638,368 L 639,369 L 641,369 L 642,370 L 644,370 L 645,371 L 646,371 L 647,372 L 648,372 L 650,374 L 651,374 L 652,375 L 652,376 L 654,378 L 654,379 L 657,382 L 657,383 L 660,386 L 660,387 L 662,389 L 663,389 L 667,393 L 668,393 L 669,394 L 677,394 L 678,393 L 679,393 L 680,394 L 685,394 L 687,396 L 687,397 L 688,398 L 688,399 L 689,400 L 689,402 L 690,403 L 690,409 L 689,410 L 689,412 L 684,417 L 683,417 L 682,418 L 689,418 L 690,417 L 693,417 L 694,416 L 695,416 L 698,413 L 698,412 L 700,410 L 700,408 L 701,407 L 701,404 L 702,403 L 703,403 L 706,406 L 706,407 L 708,409 L 708,410 L 709,411 L 709,412 L 710,413 L 710,414 L 711,415 L 711,416 L 712,417 L 712,419 L 713,420 L 713,423 L 714,424 L 714,426 L 715,426 L 716,425 L 717,425 L 719,423 L 720,423 L 725,418 L 725,417 L 726,416 L 726,415 L 727,414 L 727,413 L 728,412 L 728,410 L 729,409 L 729,408 L 730,407 L 730,404 L 731,403 L 731,398 L 732,397 L 732,384 L 731,383 L 731,378 L 730,377 L 730,374 L 729,373 L 729,371 L 728,370 L 728,368 L 727,367 L 727,366 L 726,365 L 726,364 L 725,363 L 725,361 L 724,360 L 724,359 L 723,358 L 723,357 L 721,355 L 721,354 L 718,351 L 718,350 L 717,350 L 717,351 L 716,352 L 716,353 L 715,354 L 715,355 L 712,358 L 711,358 L 710,357 L 709,357 L 707,355 L 706,355 L 704,353 L 703,353 L 702,352 L 701,352 L 699,350 L 698,350 L 696,348 L 695,348 L 693,346 L 692,346 L 690,344 L 689,344 L 688,343 L 687,343 L 685,341 L 684,341 L 682,339 L 681,339 L 678,336 L 677,336 L 673,332 L 672,332 L 668,328 L 667,328 L 661,322 L 660,322 L 655,317 L 656,316 L 663,316 L 664,317 L 669,317 L 669,316 L 668,315 L 668,314 L 667,313 L 667,312 L 666,311 L 666,309 L 665,308 L 665,307 L 664,306 L 664,305 L 663,304 L 663,303 L 662,302 L 662,301 L 661,300 L 661,299 L 655,293 L 654,293 L 651,290 L 650,290 L 648,288 L 647,288 L 644,285 L 643,285 L 641,283 L 640,283 L 638,281 L 637,281 L 634,278 L 633,278 L 631,276 L 630,276 L 628,274 L 627,274 L 624,271 L 623,271 L 621,269 L 620,269 L 617,266 L 616,266 L 614,264 L 613,264 L 610,261 L 609,261 L 607,259 L 606,259 L 603,256 L 602,256 L 599,253 L 598,253 L 596,251 L 595,251 L 592,248 L 591,248 L 588,245 L 587,245 L 585,243 L 584,243 L 581,240 L 580,240 L 577,237 L 576,237 L 573,234 L 572,234 L 568,230 L 567,230 L 564,227 L 563,227 L 559,223 L 558,223 L 554,219 L 553,219 L 549,215 L 548,215 L 545,212 L 544,212 L 539,207 L 538,207 L 533,202 L 532,202 L 527,197 L 526,197 L 517,188 L 516,188 L 499,171 L 499,170 L 494,165 L 494,164 L 491,161 L 491,160 L 489,158 L 489,157 L 488,156 L 488,155 L 487,154 L 487,153 L 485,151 L 485,150 L 484,149 L 484,148 L 483,147 L 483,146 L 482,145 L 482,144 L 481,143 L 481,142 L 480,141 L 480,140 L 479,139 L 479,138 L 478,137 L 478,136 L 476,134 L 476,133 L 475,132 L 475,131 Z" fill="#ff5722" stroke="none" /></svg>